<?xml version="1.0" encoding="UTF-8"?>
<svg id="Warstwa_2" data-name="Warstwa 2" xmlns="http://www.w3.org/2000/svg" viewBox="0 0 3796.99 3796.37">
  <defs>
    <style>
      .cls-1 {
        fill: #fff;
      }
    </style>
  </defs>
  <g id="Warstwa_1-2" data-name="Warstwa 1">
    <path class="cls-1" d="M3208.07,3796.37l-2615.76-.32c-48.09,0-93.08-23.88-125.67-56.43l-408.41-407.8C18.64,3292.3,0,3243.97,0,3187.4L.31,602.1c0-53.71,20.51-99.79,57.39-136.65L463.91,59.35C503.28,20,551.7.02,608.48.02L3181.8,0c51.19,0,103.53,11.53,139.9,47.86l420.72,420.19c32.21,32.17,47.22,69.1,54.5,114.82l.07,2628.9c-5.47,46.75-22.17,84.78-54.77,117.43l-409.96,410.52c-34.13,33.03-72.47,52.94-124.18,56.66ZM1898.98,3454.17c30.79-226.1,100.71-443.28,208.56-645.83,271.77-510.41,768.15-830.59,1336.77-908.1,8.93-4.63,8.28-5.29-2.28-3.53-312.24-44.12-611.89-163.02-863.58-353.73-381.66-289.19-618.74-727.91-679.42-1200.13-62.79,466.74-283.9,883.94-649.77,1176.81-254.56,203.77-580.77,336.6-903.93,378.5,262.62,36.92,509.35,121.09,732.03,258.18,82.78,50.96,158.05,104.59,230.58,169.24,106.06,94.54,200.64,198.38,280.96,316.28,139.94,205.44,242.15,434.59,286.02,678.58l24.05,133.74Z"/>
  </g>
</svg>