<svg xmlns="http://www.w3.org/2000/svg" viewBox="0 0 400 60" fill="white">
  <path d="M45.2 8.2v-5c.5 0 1-.1 1.5-.1 13.2-.4 21.9 11.4 21.9 11.4s-9.6 12.4-18.5 12.4c-1.7 0-3.4-.3-4.9-.8v-12c5.2.6 6.2 2.9 9.3 8l6.9-5.8s-5-6.6-13.5-6.6c-.9 0-1.8 0-2.7.1m0-8.2v4.1l1.5-.1c18.4-.6 30.4 9.5 30.4 9.5s-13.8 13.3-22.1 13.3c-3.5 0-6.7-1-9.8-2.6V28c1 .1 2 .2 3.1.2 13.3 0 22.9-6.8 22.9-6.8 1.6 1.2 7.9 4.3 9.2 5.6-8.9 7.4-29.6 13.4-32.1 13.4h-.1c-.9 0-1.8-.1-2.7-.3v1.7H80V0H45.2zm0 26.4v2.1c-12.4-2.2-15.8-15-15.8-15s5.9-6.6 15.8-7.6v2.6c-5.2-.6-9.3 4.2-9.3 4.2s2.3 8.2 9.3 10.5M22.5 14.6s7.3-10.8 22-11.9V0C25.3 1.3 14 15.1 14 15.1s7.9 23 22.5 25.1V37c-16.4-2-22-20-22-20z" transform="translate(0,8) scale(0.65)"/>
  <text x="62" y="43" font-family="Arial Black, sans-serif" font-weight="900" font-size="38" letter-spacing="2">NVIDIA</text>
</svg>
