<svg xmlns="http://www.w3.org/2000/svg" viewBox="0 0 320 60" fill="white">
  <path d="M20.6 7.5a8.5 8.5 0 0 1 15.8-3.5 8.5 8.5 0 0 1 11.4 8.2v.5A8.5 8.5 0 0 1 46 25.5a8.5 8.5 0 0 1-15.8 3.5 8.5 8.5 0 0 1-11.4-8.2v-.5a8.5 8.5 0 0 1 1.8-12.8zm8 3.3v8l6.8 4m-6.8-4l-6.8 4m6.8-12V3.5m8.5 5l-8.5 5m0 0l-8.5-5m17 17l-8.5-5m0 0l-8.5 5m17-5v7.3m-17-7.3V29" stroke="white" fill="none" stroke-width="1.5" transform="translate(5,10) scale(1.2)"/>
  <text x="58" y="42" font-family="sans-serif" font-weight="600" font-size="36" letter-spacing="0">OpenAI</text>
</svg>
