<?xml version="1.0" encoding="UTF-8"?>
<svg id="Warstwa_2" data-name="Warstwa 2" xmlns="http://www.w3.org/2000/svg" viewBox="0 0 3116.9 562.77">
  <defs>
    <style>
      .cls-1 {
        fill: #fff;
      }
    </style>
  </defs>
  <g id="Warstwa_1-2" data-name="Warstwa 1">
    <g>
      <path class="cls-1" d="M475.56,562.77l-387.76-.05c-7.13,0-13.8-3.54-18.63-8.37l-60.54-60.45C2.76,488.05,0,480.88,0,472.5L.05,89.26c0-7.96,3.04-14.79,8.51-20.26L68.77,8.8C74.61,2.96,81.78,0,90.2,0h381.47c7.59,0,15.35,1.71,20.74,7.09l62.37,62.29c4.77,4.77,7,10.24,8.08,17.02v389.7c-.8,6.93-3.28,12.57-8.11,17.41l-60.77,60.86c-5.06,4.9-10.74,7.85-18.41,8.4ZM281.5,512.04c4.56-33.52,14.93-65.71,30.92-95.74,40.29-75.66,113.87-123.13,198.16-134.62,1.32-.69,1.23-.78-.34-.52-46.29-6.54-90.71-24.17-128.02-52.44-56.58-42.87-91.72-107.9-100.72-177.91-9.31,69.19-42.09,131.03-96.32,174.45-37.74,30.21-86.09,49.9-134,56.11,38.93,5.47,75.51,17.95,108.52,38.27,12.27,7.55,23.43,15.5,34.18,25.09,15.72,14.01,29.74,29.41,41.65,46.89,20.74,30.45,35.9,64.42,42.4,100.59l3.56,19.83Z"/>
      <g>
        <path class="cls-1" d="M2191.34,242.95l176.35-.34c5.17-.01,10.06,4.85,10.06,9.93l-.07,161.45c0,4.92-2.78,13.45-5.95,16.62l-69.24,69.25c-4.6,4.6-12.39,8.04-19.62,8.04l-292.54.18c-5.12,0-13.19-2.82-16.44-6l-77.81-76.28c-3.42-3.35-6.79-11.68-6.79-17.07v-250.67c.01-5.47,4.13-12.76,7.51-16.26l75.72-78.38c2.98-3.09,10.41-8.57,15.3-8.57l369.66.15.85,90.77c.03,3.13-4.66,10.8-8.45,10.81l-316.6.27c-24.98,23.88-32.79,22.52-32.82,52.27l-.17,166.92,34.55,32.06h219.84c6.45.01,12.27-5.79,12.24-11.87l-.45-74.8-133.72-1.67,58.58-76.8Z"/>
        <path class="cls-1" d="M3116.9,421.34c.05,15.76-65.74,71.9-80.52,86.78l-387.28-.16-.65-87.84c-.04-5.22,6.18-9.95,11.98-9.94l330.03.11c7.5,0,13.15-8.02,13.15-14l.07-51.71c.01-9.37-5.15-16.7-15.36-16.7l-268.21.06-79.05-77.36-.19-100.99c-.01-7.77,4.72-15.5,10.08-20.9l73.44-73.93,370.6.11.45,98.69-326.24.42c-7.3,0-14.28,7.88-14.28,13.76l.06,54.55c0,7.78,7.62,14.21,15.91,14.21l253.81-.07c9.59,0,16.35,2.59,22.9,8.97l55.83,54.36c3.75,3.65,13.1,12.27,13.12,17.53l.35,104.05Z"/>
        <path class="cls-1" d="M1478.98,329.92l-.07,69.09c0,4.23,6.16,11.26,11.23,11.26l325.34.08c2.97,0,9.15,5.75,9.12,8.41l-1.07,89.11-356.81-.03c-6.48,0-13.58-3.15-17.71-7.23l-72.53-71.53c-4.25-4.2-9.25-12.03-9.25-18.3l-.04-252.58c0-4.15,2.55-12.43,5.11-15.04l86.65-88.4,365,.1.71,90.83c.02,2.94-5.51,8-9.08,8l-323.1-.09c-8.31,0-13.29,7.01-13.33,14.35l-.3,62.16c-.03,5.32,4.51,12.44,11.04,12.45l298.75.25.28,76.81-298.71.35c-4.36,0-11.23,5.57-11.24,9.96Z"/>
        <path class="cls-1" d="M1204.94,499.01l-43.1-82.89h-273.01s-48.36,92.04-48.36,92.04l-124.09-1.2,230.24-438.81c4.91-8.88,12.02-13.56,22.01-13.55l117.98.12c3.99,0,12.36,4.64,14.24,8.22l233.15,444.33-116.79.85c-3.77.03-10.02-4.78-12.28-9.12ZM1117.61,330.95l-93.64-181.43-91.88,181.56,185.52-.13Z"/>
        <rect class="cls-1" x="2455.72" y="55.7" width="111.44" height="451.95"/>
      </g>
    </g>
  </g>
</svg>